<?xml version="1.0" standalone="no"?>
<!DOCTYPE svg PUBLIC "-//W3C//DTD SVG 20010904//EN"
 "http://www.w3.org/TR/2001/REC-SVG-20010904/DTD/svg10.dtd">
<svg version="1.0" xmlns="http://www.w3.org/2000/svg"
 width="512.000000pt" height="512.000000pt" viewBox="0 0 512.000000 512.000000"
 preserveAspectRatio="xMidYMid meet">
<metadata>
Created by potrace 1.11, written by Peter Selinger 2001-2013
</metadata>
<g transform="translate(0.000000,512.000000) scale(0.100000,-0.100000)"
fill="#000000" stroke="none">
<path d="M3763 4648 c-18 -13 -33 -27 -33 -31 0 -5 -6 -23 -14 -40 -11 -25
-296 -809 -384 -1057 -65 -183 -145 -396 -150 -402 -4 -3 -70 -9 -147 -13
-135 -6 -184 -8 -420 -20 -60 -3 -166 -8 -235 -11 -69 -3 -157 -7 -196 -9 -39
-2 -138 -7 -220 -10 -82 -4 -183 -8 -224 -10 -41 -2 -136 -7 -210 -10 -74 -3
-173 -8 -220 -10 -133 -7 -271 -7 -315 0 -325 49 -585 215 -756 483 -64 101
-88 122 -135 122 -34 0 -80 -28 -93 -56 -38 -85 110 -305 334 -494 31 -27 123
-90 130 -90 2 0 26 -13 54 -29 42 -25 152 -75 186 -85 6 -2 31 -9 58 -16 26
-7 47 -16 47 -20 0 -5 -17 -35 -38 -67 -53 -81 -77 -134 -108 -238 -23 -78
-27 -109 -28 -230 0 -77 2 -163 6 -191 12 -78 55 -220 97 -314 l37 -85 -118
-160 c-184 -249 -196 -268 -192 -310 2 -20 5 -44 8 -53 3 -9 8 -37 11 -62 4
-25 12 -76 20 -115 8 -38 21 -108 29 -155 9 -47 18 -94 20 -105 2 -11 7 -40
11 -65 17 -105 34 -172 51 -197 20 -32 79 -46 173 -42 79 4 84 6 112 37 16 18
29 44 29 58 0 22 -23 158 -56 334 -3 19 -8 44 -9 55 -2 11 -6 36 -9 55 l-6 35
427 320 c235 176 447 338 472 360 42 39 115 128 137 170 5 11 17 19 25 18 20
-3 303 -53 419 -74 36 -6 79 -13 95 -15 17 -3 53 -9 80 -14 28 -5 66 -12 85
-15 19 -3 42 -8 50 -10 8 -2 33 -6 55 -10 22 -3 51 -8 65 -10 14 -2 54 -9 90
-14 36 -6 74 -13 85 -15 11 -2 111 -19 222 -37 l201 -33 7 -50 c4 -28 8 -58
10 -66 3 -16 12 -73 20 -125 3 -16 9 -57 15 -90 5 -33 24 -148 40 -255 17
-107 38 -238 46 -290 18 -113 21 -132 29 -189 15 -101 45 -127 151 -130 90 -3
139 16 158 60 11 25 13 148 13 600 l0 567 36 32 c36 31 90 129 97 175 1 3 7
26 15 52 7 27 26 104 40 173 15 69 28 132 30 140 11 55 71 328 96 443 17 76
32 144 33 150 1 7 11 53 21 102 l18 90 131 1 c161 0 239 19 371 87 129 66 254
186 330 316 43 74 51 111 30 150 -17 34 -38 47 -151 91 -44 17 -92 37 -109 44
-16 7 -78 32 -138 56 -91 37 -108 48 -114 69 -12 53 -68 144 -113 184 -48 43
-68 55 -131 80 -35 14 -36 17 -38 68 -1 30 -3 65 -5 79 -3 14 -7 56 -11 95
-10 109 -37 145 -108 145 -45 0 -92 -38 -174 -138 l-19 -24 -38 134 c-44 151
-55 172 -98 187 -44 16 -59 14 -95 -11z"/>
</g>
</svg>
